<svg xmlns="http://www.w3.org/2000/svg" viewBox="0 0 512 512" width="512" height="512" style="color:#ffffff">

<defs><clipPath id="cc"><circle cx="256" cy="256" r="256"/></clipPath><clipPath id="cL"><polygon points="430.94913046650595,1138.5067178023148 118.3824106660312,-634.1472376196597 983.0436178107498,-786.6103376112246 1295.6103376112246,986.0436178107498"/></clipPath><clipPath id="cR"><polygon points="387.6175893339688,1146.1472376196596 75.05086953349405,-626.5067178023147 -789.6103376112246,-474.0436178107498 -477.0436178107498,1298.6103376112246"/></clipPath></defs><circle cx="256" cy="256" r="256" fill="#1a1a2e"/><g clip-path="url(#cc)">
<g clip-path="url(#cL)" stroke-linecap="round"><g transform="translate(0,44)">
<path d="M256.0 24.0 L262.1 24.4 L268.1 25.5 L274.0 27.4 L279.8 30.0 L285.3 33.2 L290.7 37.0 L295.8 41.3 L300.6 46.0 L305.2 50.9 L309.6 56.1 L313.7 61.3 L317.6 66.5 L321.3 71.6 L324.9 76.5 L328.5 81.1 L332.0 85.4 L335.5 89.3 L339.2 92.7 L343.0 95.8 L347.0 98.4 L351.3 100.6 L355.8 102.3 L360.6 103.8 L365.8 104.9 L371.3 105.8 L377.0 106.6 L383.1 107.2 L389.3 107.9 L395.8 108.7 L402.4 109.6 L409.0 110.8 L415.6 112.3 L422.0 114.2 L428.3 116.5 L434.2 119.2 L439.8 122.4 L445.0 126.1 L449.5 130.3 L453.6 134.9 L456.9 140.0 L459.6 145.4 L461.6 151.2 L462.9 157.3 L463.6 163.6 L463.6 170.0 L463.0 176.6 L461.8 183.1 L460.2 189.6 L458.2 196.1 L455.9 202.4 L453.5 208.6 L450.9 214.6 L448.4 220.3 L445.9 225.9 L443.7 231.3 L441.8 236.5 L440.2 241.5 L439.0 246.4 L438.2 251.2 L438.0 256.0 L438.2 260.8 L439.0 265.6 L440.2 270.5 L441.8 275.5 L443.7 280.7 L445.9 286.1 L448.4 291.7 L450.9 297.4 L453.5 303.4 L455.9 309.6 L458.2 315.9 L460.2 322.4 L461.8 328.9 L463.0 335.4 L463.6 342.0 L463.6 348.4 L462.9 354.7 L461.6 360.8 L459.6 366.6 L456.9 372.0 L453.6 377.1 L449.5 381.7 L445.0 385.9 L439.8 389.6 L434.2 392.8 L428.3 395.5 L422.0 397.8 L415.6 399.7 L409.0 401.2 L402.4 402.4 L395.8 403.3 L389.3 404.1 L383.1 404.8 L377.0 405.4 L371.3 406.2 L365.8 407.1 L360.6 408.2 L355.8 409.7 L351.3 411.4 L347.0 413.6 L343.0 416.2 L339.2 419.3 L335.5 422.7 L332.0 426.6 L328.5 430.9 L324.9 435.5 L321.3 440.4 L317.6 445.5 L313.7 450.7 L309.6 455.9 L305.2 461.1 L300.6 466.0 L295.8 470.7 L290.7 475.0 L285.3 478.8 L279.8 482.0 L274.0 484.6 L268.1 486.5 L262.1 487.6 L256.0 488.0 L249.9 487.6 L243.9 486.5 L238.0 484.6 L232.2 482.0 L226.7 478.8 L221.3 475.0 L216.2 470.7 L211.4 466.0 L206.8 461.1 L202.4 455.9 L198.3 450.7 L194.4 445.5 L190.7 440.4 L187.1 435.5 L183.5 430.9 L180.0 426.6 L176.5 422.7 L172.8 419.3 L169.0 416.2 L165.0 413.6 L160.7 411.4 L156.2 409.7 L151.4 408.2 L146.2 407.1 L140.7 406.2 L135.0 405.4 L128.9 404.8 L122.7 404.1 L116.2 403.3 L109.6 402.4 L103.0 401.2 L96.4 399.7 L90.0 397.8 L83.7 395.5 L77.8 392.8 L72.2 389.6 L67.0 385.9 L62.5 381.7 L58.4 377.1 L55.1 372.0 L52.4 366.6 L50.4 360.8 L49.1 354.7 L48.4 348.4 L48.4 342.0 L49.0 335.4 L50.2 328.9 L51.8 322.4 L53.8 315.9 L56.1 309.6 L58.5 303.4 L61.1 297.4 L63.6 291.7 L66.1 286.1 L68.3 280.7 L70.2 275.5 L71.8 270.5 L73.0 265.6 L73.8 260.8 L74.0 256.0 L73.8 251.2 L73.0 246.4 L71.8 241.5 L70.2 236.5 L68.3 231.3 L66.1 225.9 L63.6 220.3 L61.1 214.6 L58.5 208.6 L56.1 202.4 L53.8 196.1 L51.8 189.6 L50.2 183.1 L49.0 176.6 L48.4 170.0 L48.4 163.6 L49.1 157.3 L50.4 151.2 L52.4 145.4 L55.1 140.0 L58.4 134.9 L62.5 130.3 L67.0 126.1 L72.2 122.4 L77.8 119.2 L83.7 116.5 L90.0 114.2 L96.4 112.3 L103.0 110.8 L109.6 109.6 L116.2 108.7 L122.7 107.9 L128.9 107.2 L135.0 106.6 L140.7 105.8 L146.2 104.9 L151.4 103.8 L156.2 102.3 L160.7 100.6 L165.0 98.4 L169.0 95.8 L172.8 92.7 L176.5 89.3 L180.0 85.4 L183.5 81.1 L187.1 76.5 L190.7 71.6 L194.4 66.5 L198.3 61.3 L202.4 56.1 L206.8 50.9 L211.4 46.0 L216.2 41.3 L221.3 37.0 L226.7 33.2 L232.2 30.0 L238.0 27.4 L243.9 25.5 L249.9 24.4 L256.0 24.0 Z" fill="none" stroke="currentColor" stroke-width="16" stroke-linejoin="round"/>
<path d="M332.0 124.4 L335.5 126.3 L339.1 128.1 L342.7 129.8 L346.5 131.5 L350.3 133.1 L354.3 134.7 L358.3 136.3 L362.3 137.9 L366.4 139.6 L370.6 141.4 L374.6 143.4 L378.7 145.5 L382.6 147.8 L386.5 150.4 L390.1 153.1 L393.6 156.0 L396.9 159.2 L399.8 162.6 L402.5 166.2 L405.0 170.0 L407.0 174.0 L408.8 178.1 L410.3 182.4 L411.4 186.8 L412.2 191.3 L412.7 195.8 L413.0 200.4 L413.0 205.0 L412.8 209.5 L412.5 214.1 L412.0 218.5 L411.4 223.0 L410.8 227.3 L410.2 231.6 L409.6 235.8 L409.1 239.9 L408.6 244.0 L408.3 248.0 L408.1 252.0 L408.0 256.0 L408.1 260.0 L408.3 264.0 L408.6 268.0 L409.1 272.1 L409.6 276.2 L410.2 280.4 L410.8 284.7 L411.4 289.0 L412.0 293.5 L412.5 297.9 L412.8 302.5 L413.0 307.0 L413.0 311.6 L412.7 316.2 L412.2 320.7 L411.4 325.2 L410.3 329.6 L408.8 333.9 L407.0 338.0 L405.0 342.0 L402.5 345.8 L399.8 349.4 L396.9 352.8 L393.6 356.0 L390.1 358.9 L386.5 361.6 L382.6 364.2 L378.7 366.5 L374.6 368.6 L370.6 370.6 L366.4 372.4 L362.3 374.1 L358.3 375.7 L354.3 377.3 L350.3 378.9 L346.5 380.5 L342.7 382.2 L339.1 383.9 L335.5 385.7 L332.0 387.6 L328.6 389.7 L325.2 391.9 L321.9 394.2 L318.6 396.6 L315.3 399.1 L311.9 401.8 L308.6 404.4 L305.1 407.1 L301.6 409.8 L297.9 412.5 L294.2 415.0 L290.3 417.5 L286.3 419.8 L282.3 421.8 L278.1 423.6 L273.8 425.2 L269.4 426.4 L265.0 427.3 L260.5 427.8 L256.0 428.0 L251.5 427.8 L247.0 427.3 L242.6 426.4 L238.2 425.2 L233.9 423.6 L229.7 421.8 L225.7 419.8 L221.7 417.5 L217.8 415.0 L214.1 412.5 L210.4 409.8 L206.9 407.1 L203.4 404.4 L200.1 401.8 L196.7 399.1 L193.4 396.6 L190.1 394.2 L186.8 391.9 L183.4 389.7 L180.0 387.6 L176.5 385.7 L172.9 383.9 L169.3 382.2 L165.5 380.5 L161.7 378.9 L157.7 377.3 L153.7 375.7 L149.7 374.1 L145.6 372.4 L141.4 370.6 L137.4 368.6 L133.3 366.5 L129.4 364.2 L125.5 361.6 L121.9 358.9 L118.4 356.0 L115.1 352.8 L112.2 349.4 L109.5 345.8 L107.0 342.0 L105.0 338.0 L103.2 333.9 L101.7 329.6 L100.6 325.2 L99.8 320.7 L99.3 316.2 L99.0 311.6 L99.0 307.0 L99.2 302.5 L99.5 297.9 L100.0 293.5 L100.6 289.0 L101.2 284.7 L101.8 280.4 L102.4 276.2 L102.9 272.1 L103.4 268.0 L103.7 264.0 L103.9 260.0 L104.0 256.0 L103.9 252.0 L103.7 248.0 L103.4 244.0 L102.9 239.9 L102.4 235.8 L101.8 231.6 L101.2 227.3 L100.6 223.0 L100.0 218.5 L99.5 214.1 L99.2 209.5 L99.0 205.0 L99.0 200.4 L99.3 195.8 L99.8 191.3 L100.6 186.8 L101.7 182.4 L103.2 178.1 L105.0 174.0 L107.0 170.0 L109.5 166.2 L112.2 162.6 L115.1 159.2 L118.4 156.0 L121.9 153.1 L125.5 150.4 L129.4 147.8 L133.3 145.5 L137.4 143.4 L141.4 141.4 L145.6 139.6 L149.7 137.9 L153.7 136.3 L157.7 134.7 L161.7 133.1 L165.5 131.5 L169.3 129.8 L172.9 128.1 L176.5 126.3 L180.0 124.4 L183.4 122.3 L186.8 120.1 L190.1 117.8 L193.4 115.4 L196.7 112.9 L200.1 110.2 L203.4 107.6 L206.9 104.9 L210.4 102.2 L214.1 99.5 L217.8 97.0 L221.7 94.5 L225.7 92.2 L229.7 90.2 L233.9 88.4 L238.2 86.8 L242.6 85.6 L247.0 84.7 L251.5 84.2 L256.0 84.0 L260.5 84.2 L265.0 84.7 L269.4 85.6 L273.8 86.8 L278.1 88.4 L282.3 90.2 L286.3 92.2 L290.3 94.5 L294.2 97.0 L297.9 99.5 L301.6 102.2 L305.1 104.9 L308.6 107.6 L311.9 110.2 L315.3 112.9 L318.6 115.4 L321.9 117.8 L325.2 120.1 L328.6 122.3 L332.0 124.4 Z" fill="none" stroke="currentColor" stroke-width="13" stroke-linejoin="round"/>
<path d="M256 108 L332 138 L384 200 L380 288 L346 358 L302 404 L256 428 L210 404 L166 358 L132 288 L128 200 L180 138Z" fill="none" stroke="currentColor" stroke-width="16" stroke-linejoin="round"/>
<path d="M216 218 L216 295 L238 295 L238 248 L274 248 L274 295 L296 295 L296 218Z" fill="currentColor" stroke="currentColor" stroke-width="5" stroke-linejoin="miter"/>
<path d="M226 315 L256 354 L286 315" fill="none" stroke="currentColor" stroke-width="13" stroke-linecap="round" stroke-linejoin="round"/>
<path d="M172 198 L212 182 L224 204" fill="none" stroke="currentColor" stroke-width="11" stroke-linecap="round" stroke-linejoin="round"/>
<path d="M340 198 L300 182 L288 204" fill="none" stroke="currentColor" stroke-width="11" stroke-linecap="round" stroke-linejoin="round"/></g></g>
<g clip-path="url(#cR)" stroke-linecap="round">
<path d="M256 438 C162 442 62 362 62 272 C62 218 84 184 114 160 C116 136 128 96 163 48 L180 80 C188 96 196 112 206 126 C224 108 240 100 256 98 C272 100 288 108 306 126 C316 112 324 96 332 80 L349 48 C384 96 396 136 398 160 C428 184 450 218 450 272 C450 362 350 442 256 438Z" fill="none" stroke="currentColor" stroke-width="16" stroke-linejoin="round"/>
<path d="M140 158 L172 78 L204 136" fill="none" stroke="currentColor" stroke-width="11" stroke-linecap="round" stroke-linejoin="round"/>
<path d="M308 136 L340 78 L372 158" fill="none" stroke="currentColor" stroke-width="11" stroke-linecap="round" stroke-linejoin="round"/>
<line x1="238" y1="130" x2="238" y2="176" stroke="currentColor" stroke-width="10" stroke-linecap="round"/>
<line x1="256" y1="120" x2="256" y2="170" stroke="currentColor" stroke-width="10" stroke-linecap="round"/>
<line x1="274" y1="130" x2="274" y2="176" stroke="currentColor" stroke-width="10" stroke-linecap="round"/>
<path d="M170 256 Q198 218 228 256" fill="none" stroke="currentColor" stroke-width="16" stroke-linecap="round"/>
<path d="M284 256 Q312 218 342 256" fill="none" stroke="currentColor" stroke-width="16" stroke-linecap="round"/>
<path d="M256 280 L242 298 Q256 310 270 298Z" fill="currentColor"/>
<path d="M220 318 Q237 350 256 326 Q275 350 292 318" fill="none" stroke="currentColor" stroke-width="11" stroke-linecap="round" stroke-linejoin="round"/>
<line x1="176" y1="286" x2="58" y2="266" stroke="currentColor" stroke-width="8" stroke-linecap="round"/>
<line x1="172" y1="304" x2="48" y2="304" stroke="currentColor" stroke-width="8" stroke-linecap="round"/>
<line x1="176" y1="322" x2="58" y2="342" stroke="currentColor" stroke-width="8" stroke-linecap="round"/>
<line x1="336" y1="286" x2="454" y2="266" stroke="currentColor" stroke-width="8" stroke-linecap="round"/>
<line x1="340" y1="304" x2="464" y2="304" stroke="currentColor" stroke-width="8" stroke-linecap="round"/>
<line x1="336" y1="322" x2="454" y2="342" stroke="currentColor" stroke-width="8" stroke-linecap="round"/></g>
<line x1="295.1166290113373" y1="494.85527241558094" x2="210.8833709886627" y2="17.14472758441906" stroke="#ffffff" stroke-width="12" stroke-linecap="round"/>
</g></svg>